<svg width="401" height="400" viewBox="0 0 401 400" fill="none" xmlns="http://www.w3.org/2000/svg">
<rect width="400" height="400" fill="black"/>
<g filter="url(#filter0_d_7_6)">
<path d="M140.441 162.702C150.889 158.788 159.552 156.735 166.43 156.545C173.307 156.354 181.733 158.174 191.706 162.004L216.121 172.185C227.294 176.247 237.634 176.406 247.142 172.66C256.3 169.052 262.508 163.836 265.764 157.011C269.108 150.152 268.975 142.143 265.367 132.984C261.862 124.087 256.689 117.862 249.849 114.31C243.008 110.758 235.619 110.545 227.681 113.672L218.146 89.467C232.345 84.0747 245.704 84.6057 258.222 91.0602C270.862 97.5676 280.309 108.759 286.563 124.634C293.058 141.119 293.66 155.694 288.372 168.358C283.204 181.074 272.901 190.474 257.462 196.556C242.198 202.569 224.368 201.432 203.973 193.143L184.224 184.449C174.651 180.865 163.235 181.684 149.976 186.907L140.441 162.702ZM98.5526 177.995C102.478 176.449 106.213 176.338 109.757 177.662C113.423 179.039 116.184 182.083 118.04 186.793C119.895 191.503 119.952 195.612 118.21 199.119C116.556 202.593 113.766 205.102 109.841 206.649C105.916 208.195 102.164 208.263 98.5848 206.851C95.0931 205.405 92.4194 202.327 90.5638 197.617C88.7082 192.907 88.5641 188.833 90.1315 185.394C91.8204 182.008 94.6275 179.542 98.5526 177.995Z" fill="white"/>
<path d="M140.441 162.702L140.09 161.766L139.137 162.123L139.51 163.069L140.441 162.702ZM191.706 162.004L192.09 161.081L192.077 161.075L192.064 161.07L191.706 162.004ZM216.121 172.185L215.736 173.108L215.757 173.117L215.779 173.125L216.121 172.185ZM265.764 157.011L264.865 156.573L264.862 156.58L265.764 157.011ZM227.681 113.672L226.751 114.039L227.118 114.969L228.048 114.602L227.681 113.672ZM218.146 89.467L217.791 88.5322L216.844 88.8916L217.215 89.8336L218.146 89.467ZM258.222 91.0602L257.764 91.9491L257.764 91.9493L258.222 91.0602ZM288.372 168.358L287.449 167.972L287.445 167.981L288.372 168.358ZM203.973 193.143L203.57 194.058L203.583 194.064L203.597 194.069L203.973 193.143ZM184.224 184.449L184.627 183.533L184.601 183.522L184.575 183.512L184.224 184.449ZM149.976 186.907L149.046 187.274L149.412 188.204L150.343 187.838L149.976 186.907ZM109.757 177.662L110.109 176.726L110.107 176.725L109.757 177.662ZM118.21 199.119L117.315 198.675L117.311 198.682L117.308 198.689L118.21 199.119ZM98.5848 206.851L98.2022 207.775L98.21 207.778L98.2179 207.781L98.5848 206.851ZM90.1315 185.394L89.2366 184.947L89.2288 184.963L89.2215 184.979L90.1315 185.394ZM140.791 163.639C151.192 159.742 159.737 157.73 166.457 157.544L166.402 155.545C159.367 155.74 150.586 157.833 140.09 161.766L140.791 163.639ZM166.457 157.544C173.151 157.359 181.436 159.131 191.347 162.937L192.064 161.07C182.029 157.216 173.464 155.349 166.402 155.545L166.457 157.544ZM191.321 162.927L215.736 173.108L216.506 171.262L192.09 161.081L191.321 162.927ZM215.779 173.125C227.142 177.256 237.737 177.44 247.508 173.591L246.775 171.73C237.531 175.372 227.446 175.239 216.463 171.245L215.779 173.125ZM247.508 173.591C256.829 169.919 263.272 164.557 266.667 157.441L264.862 156.58C261.744 163.114 255.772 168.186 246.775 171.73L247.508 173.591ZM266.663 157.449C270.163 150.27 269.977 141.957 266.298 132.617L264.437 133.351C267.974 142.329 268.053 150.034 264.865 156.573L266.663 157.449ZM266.298 132.617C262.726 123.552 257.412 117.111 250.31 113.423L249.388 115.197C255.966 118.614 260.998 124.622 264.437 133.351L266.298 132.617ZM250.31 113.423C243.183 109.722 235.489 109.521 227.315 112.742L228.048 114.602C235.749 111.569 242.833 111.794 249.388 115.197L250.31 113.423ZM228.612 113.306L219.076 89.1005L217.215 89.8336L226.751 114.039L228.612 113.306ZM218.501 90.4019C232.458 85.1014 245.519 85.6357 257.764 91.9491L258.68 90.1714C245.888 83.5758 232.232 83.0479 217.791 88.5322L218.501 90.4019ZM257.764 91.9493C270.147 98.3243 279.449 109.304 285.633 125L287.493 124.267C281.169 108.214 271.577 96.8109 258.68 90.1712L257.764 91.9493ZM285.633 125C292.061 141.317 292.611 155.613 287.449 167.972L289.294 168.743C294.71 155.775 294.054 140.922 287.493 124.267L285.633 125ZM287.445 167.981C282.402 180.392 272.337 189.621 257.096 195.625L257.829 197.486C273.465 191.326 284.007 181.756 289.298 168.734L287.445 167.981ZM257.096 195.625C242.143 201.516 224.59 200.443 204.35 192.217L203.597 194.069C224.146 202.421 242.253 203.622 257.829 197.486L257.096 195.625ZM204.376 192.228L184.627 183.533L183.821 185.364L203.57 194.058L204.376 192.228ZM184.575 183.512C174.692 179.812 163.007 180.699 149.61 185.977L150.343 187.838C163.462 182.669 174.609 181.917 183.874 185.385L184.575 183.512ZM150.907 186.541L141.371 162.336L139.51 163.069L149.046 187.274L150.907 186.541ZM98.9191 178.926C102.643 177.459 106.121 177.371 109.407 178.599L110.107 176.725C106.304 175.304 102.313 175.439 98.186 177.065L98.9191 178.926ZM109.406 178.598C112.734 179.849 115.325 182.631 117.109 187.159L118.97 186.426C117.043 181.535 114.112 178.23 110.109 176.726L109.406 178.598ZM117.109 187.159C118.894 191.688 118.896 195.49 117.315 198.675L119.106 199.564C121.008 195.734 120.897 191.318 118.97 186.426L117.109 187.159ZM117.308 198.689C115.773 201.911 113.189 204.255 109.474 205.718L110.207 207.579C114.343 205.95 117.339 203.274 119.113 199.549L117.308 198.689ZM109.474 205.718C105.76 207.182 102.271 207.23 98.9516 205.921L98.2179 207.781C102.056 209.295 106.071 209.209 110.207 207.579L109.474 205.718ZM98.9673 205.927C95.8026 204.617 93.2854 201.797 91.4942 197.251L89.6334 197.984C91.5534 202.857 94.3835 206.194 98.2022 207.775L98.9673 205.927ZM91.4942 197.251C89.703 192.704 89.6208 188.925 91.0414 185.808L89.2215 184.979C87.5074 188.74 87.7134 193.11 89.6334 197.984L91.4942 197.251ZM91.0263 185.84C92.5921 182.701 95.1954 180.393 98.9191 178.926L98.186 177.065C94.0595 178.69 91.0488 181.314 89.2366 184.947L91.0263 185.84Z" fill="black"/>
</g>
<path d="M144.77 252.892C149.014 251.397 152.987 251.389 156.689 252.869C160.422 254.437 163.175 257.741 164.95 262.782C166.725 267.822 166.649 272.123 164.722 275.683C162.827 279.333 159.757 281.905 155.512 283.399C151.445 284.832 147.573 284.704 143.898 283.016C140.253 281.417 137.544 278.097 135.769 273.057C133.994 268.017 134.026 263.732 135.864 260.202C137.734 256.761 140.702 254.324 144.77 252.892ZM261.94 211.783C266.184 210.288 270.157 210.281 273.859 211.76C277.591 213.328 280.345 216.633 282.12 221.673C283.895 226.713 283.819 231.014 281.892 234.575C279.997 238.224 276.927 240.796 272.682 242.291C268.614 243.723 264.743 243.595 261.067 241.908C257.423 240.308 254.714 236.989 252.939 231.948C251.164 226.908 251.196 222.623 253.034 219.093C254.903 215.652 257.872 213.215 261.94 211.783Z" fill="white"/>
<defs>
<filter id="filter0_d_7_6" x="66.8222" y="70.8594" width="244.359" height="190.756" filterUnits="userSpaceOnUse" color-interpolation-filters="sRGB">
<feFlood flood-opacity="0" result="BackgroundImageFix"/>
<feColorMatrix in="SourceAlpha" type="matrix" values="0 0 0 0 0 0 0 0 0 0 0 0 0 0 0 0 0 0 127 0" result="hardAlpha"/>
<feOffset dy="4"/>
<feGaussianBlur stdDeviation="2"/>
<feComposite in2="hardAlpha" operator="out"/>
<feColorMatrix type="matrix" values="0 0 0 0 0 0 0 0 0 0 0 0 0 0 0 0 0 0 0.25 0"/>
<feBlend mode="normal" in2="BackgroundImageFix" result="effect1_dropShadow_7_6"/>
<feBlend mode="normal" in="SourceGraphic" in2="effect1_dropShadow_7_6" result="shape"/>
</filter>
</defs>
</svg>
